<svg xmlns="http://www.w3.org/2000/svg" xmlns:xlink="http://www.w3.org/1999/xlink" version="1.1" x="0px" y="0px" viewBox="0 0 512 640" style="enable-background:new 0 0 512 512;" xml:space="preserve"><g><g><path d="M355,96H190c-2.761,0-5-2.239-5-5c0-2.762,2.239-5,5-5h165V56h-75h-50h-75v150h200V96z"/><polygon points="150,216 95,216 95,246 110,246 400,246 415,246 415,216 360,216   "/><path d="M215.471,380.513c1.372,0.39,2.753,0.761,4.142,1.11c0.711,0.179,1.423,0.354,2.137,0.522    c0.705,0.166,1.411,0.332,2.12,0.488c1.279,0.28,2.562,0.545,3.849,0.79c0.564,0.108,1.131,0.206,1.697,0.308    c1.073,0.191,2.148,0.371,3.227,0.538c0.444,0.069,0.887,0.144,1.333,0.209c1.451,0.211,2.906,0.396,4.364,0.563    c0.44,0.051,0.881,0.097,1.322,0.144c1.377,0.145,2.756,0.274,4.139,0.38c0.191,0.015,0.38,0.034,0.572,0.048    c1.556,0.113,3.117,0.194,4.679,0.258c0.389,0.016,0.778,0.029,1.167,0.042C251.81,385.965,253.403,386,255,386    s3.19-0.035,4.782-0.087c0.39-0.013,0.779-0.026,1.168-0.042c1.562-0.063,3.122-0.145,4.679-0.258    c0.191-0.014,0.383-0.033,0.574-0.048c1.382-0.105,2.76-0.235,4.135-0.38c0.441-0.047,0.884-0.093,1.325-0.144    c1.457-0.167,2.912-0.353,4.361-0.563c0.447-0.065,0.892-0.14,1.337-0.209c1.077-0.167,2.151-0.348,3.223-0.538    c0.566-0.102,1.134-0.199,1.698-0.308c1.287-0.245,2.57-0.51,3.849-0.79c0.708-0.156,1.412-0.321,2.116-0.487    c0.717-0.169,1.433-0.346,2.146-0.525c1.372-0.346,2.736-0.711,4.093-1.097c0.47-0.133,0.94-0.263,1.409-0.4    c55.729-16.443,96.791-65.584,99.01-124.124H115.095c2.219,58.543,43.283,107.686,99.018,124.127    C214.564,380.26,215.018,380.385,215.471,380.513z M155.11,293.57c-1.419-2.368-0.649-5.439,1.719-6.858    c2.37-1.419,5.44-0.649,6.859,1.72c13.747,22.944,33.976,41.358,58.498,53.251c2.485,1.205,3.522,4.196,2.317,6.681    c-0.864,1.782-2.647,2.819-4.502,2.819c-0.732,0-1.476-0.161-2.178-0.502C191.545,337.937,169.859,318.188,155.11,293.57z"/><path d="M255,26c-11.028,0-20,8.972-20,20h40C275,34.972,266.028,26,255,26z"/><path d="M401,476h-68.583l-36.615-85.436c-0.805,0.22-1.616,0.411-2.425,0.618c-0.437,0.111-0.873,0.226-1.313,0.334    c-0.858,0.211-1.719,0.414-2.581,0.61c-0.655,0.149-1.313,0.291-1.973,0.433c-0.753,0.161-1.505,0.327-2.261,0.477    c-1.318,0.263-2.644,0.506-3.975,0.734c-0.596,0.102-1.192,0.192-1.79,0.287c-0.951,0.151-1.905,0.296-2.863,0.43    c-0.574,0.081-1.148,0.16-1.725,0.234c-1.226,0.158-2.456,0.301-3.691,0.43c-0.276,0.028-0.551,0.064-0.826,0.092    c-1.501,0.148-3.011,0.27-4.523,0.374c-0.457,0.032-0.915,0.057-1.372,0.085c-1.146,0.069-2.294,0.126-3.445,0.17    c-0.458,0.019-0.916,0.037-1.374,0.051c-1.55,0.046-3.104,0.077-4.665,0.077s-3.115-0.031-4.665-0.077    c-0.458-0.014-0.915-0.033-1.373-0.051c-1.154-0.044-2.305-0.101-3.452-0.171c-0.455-0.027-0.909-0.052-1.363-0.084    c-1.515-0.104-3.025-0.226-4.528-0.374c-0.273-0.027-0.544-0.063-0.817-0.091c-1.24-0.13-2.476-0.273-3.707-0.432    c-0.569-0.073-1.137-0.152-1.706-0.231c-0.97-0.136-1.936-0.282-2.899-0.436c-0.585-0.093-1.17-0.182-1.754-0.281    c-1.34-0.23-2.675-0.476-4.003-0.739c-0.731-0.145-1.458-0.306-2.186-0.461c-0.689-0.147-1.379-0.297-2.065-0.453    c-0.838-0.191-1.675-0.389-2.51-0.594c-0.486-0.12-0.969-0.246-1.454-0.37c-0.773-0.198-1.551-0.382-2.321-0.592L177.583,476H101    c-2.761,0-5,2.238-5,5s2.239,5,5,5h300c2.762,0,5-2.238,5-5S403.762,476,401,476z"/><rect x="71" y="391" width="20" height="20"/><rect x="91" y="371" width="20" height="20"/><rect x="51" y="371" width="20" height="20"/><rect x="71" y="351" width="20" height="20"/><rect x="421" y="101" width="20" height="20"/><rect x="441" y="81" width="20" height="20"/><rect x="401" y="81" width="20" height="20"/><rect x="421" y="61" width="20" height="20"/></g></g><text x="0" y="527" fill="#000000" font-size="5px" font-weight="bold" font-family="'Helvetica Neue', Helvetica, Arial-Unicode, Arial, Sans-serif">Created by Flatart</text><text x="0" y="532" fill="#000000" font-size="5px" font-weight="bold" font-family="'Helvetica Neue', Helvetica, Arial-Unicode, Arial, Sans-serif">from the Noun Project</text></svg>